<?xml version="1.0" encoding="utf-8"?>
<!-- Generator: Adobe Illustrator 20.0.0, SVG Export Plug-In . SVG Version: 6.00 Build 0)  -->
<svg version="1.1" id="Layer_1" xmlns="http://www.w3.org/2000/svg" xmlns:xlink="http://www.w3.org/1999/xlink" x="0px" y="0px"
	 viewBox="0 0 16 16" style="enable-background:new 0 0 16 16;" xml:space="preserve">
<style type="text/css">
	.st0{fill:#171F33;}
</style>
<g id="Twitter_5_">
	<path id="Twitter_4_" class="st0" d="M15.8,3.2c-0.6,0.3-1.2,0.4-1.8,0.5c0.7-0.4,1.2-1,1.4-1.8c-0.6,0.4-1.3,0.6-2,0.8
		c-0.6-0.6-1.4-1-2.3-1c-1.8,0-3.2,1.4-3.2,3.2c0,0.2,0,0.5,0.1,0.7c-2.6-0.1-5-1.4-6.6-3.3C1,2.7,0.9,3.3,0.9,3.9
		C0.9,5,1.5,6,2.3,6.5c-0.5,0-1-0.2-1.4-0.4c0,0,0,0,0,0C0.9,7.7,2,9,3.4,9.3C3.1,9.4,2.9,9.4,2.6,9.4c-0.2,0-0.4,0-0.6-0.1
		c0.4,1.3,1.6,2.2,3,2.2c-1.1,0.9-2.5,1.4-4,1.4c-0.3,0-0.5,0-0.8,0c1.4,0.9,3.1,1.4,4.9,1.4c5.9,0,9.1-4.9,9.1-9.1
		c0-0.1,0-0.3,0-0.4C14.8,4.4,15.3,3.8,15.8,3.2z"/>
</g>
</svg>
