<?xml version="1.0" encoding="utf-8"?>
<!-- Generator: Adobe Illustrator 20.0.0, SVG Export Plug-In . SVG Version: 6.00 Build 0)  -->
<svg version="1.1" id="Layer_1" xmlns="http://www.w3.org/2000/svg" xmlns:xlink="http://www.w3.org/1999/xlink" x="0px" y="0px"
	 viewBox="0 0 16 16" style="enable-background:new 0 0 16 16;" xml:space="preserve">
<style type="text/css">
	.st0{fill:#171F33;}
</style>
<path id="Facebook_4_" class="st0" d="M14.9,0.2H1.1c-0.5,0-0.9,0.4-0.9,0.9V15c0,0.5,0.4,0.9,0.9,0.9h7.5v-6h-2V7.4h2V5.7
	c0-2,1.2-3.1,3-3.1c0.9,0,1.6,0.1,1.8,0.1v2.1l-1.2,0c-1,0-1.2,0.5-1.2,1.1v1.5h2.3L13,9.8h-2v6h4c0.5,0,0.9-0.4,0.9-0.9V1.1
	C15.8,0.6,15.4,0.2,14.9,0.2z"/>
</svg>
