<?xml version="1.0" encoding="utf-8"?>
<!-- Generator: Adobe Illustrator 20.0.0, SVG Export Plug-In . SVG Version: 6.00 Build 0)  -->
<svg version="1.1" id="Layer_1" xmlns="http://www.w3.org/2000/svg" xmlns:xlink="http://www.w3.org/1999/xlink" x="0px" y="0px"
	 viewBox="0 0 16 16" style="enable-background:new 0 0 16 16;" xml:space="preserve">
<style type="text/css">
	.st0{fill-rule:evenodd;clip-rule:evenodd;fill:#171F33;}
</style>
<path id="Instagram_4_" class="st0" d="M14,6.8h-1.4c0.1,0.4,0.2,0.8,0.2,1.2c0,2.6-2.1,4.8-4.8,4.8S3.2,10.6,3.2,8
	c0-0.4,0.1-0.8,0.2-1.2H2v6.6C2,13.7,2.3,14,2.6,14h10.7c0.3,0,0.6-0.3,0.6-0.6V6.8z M14,2.6C14,2.3,13.7,2,13.4,2h-1.8
	C11.3,2,11,2.3,11,2.6v1.8C11,4.7,11.3,5,11.6,5h1.8C13.7,5,14,4.7,14,4.4V2.6z M8,5C6.4,5,5,6.4,5,8c0,1.6,1.3,3,3,3s3-1.3,3-3
	C11,6.4,9.6,5,8,5 M14,15.8H2c-1,0-1.8-0.8-1.8-1.8V2C0.2,1,1,0.2,2,0.2H14c1,0,1.8,0.8,1.8,1.8V14C15.8,15,15,15.8,14,15.8"/>
</svg>
