<svg id="Layer_1" data-name="Layer 1" xmlns="http://www.w3.org/2000/svg" viewBox="0 0 257.46 67.27"><defs><style>.cls-1{fill:#02a9e0;}.cls-2{fill:#172033;opacity:0.9;}</style></defs><title>logo</title><path class="cls-1" d="M14.27,56.19C8,56.19,3.61,52.82,1.81,47.1l6.92-1.87C9.45,48,11.14,50,13.91,50c3.49,0,5-2.17,5-6.5V20.06H6.74L5.12,13.44H26.55V44C26.55,51.61,22,56.19,14.27,56.19Z"/><path class="cls-1" d="M49.25,55.41H36.19v-42H49.25c11.2,0,18.24,7.53,18.24,21S60.45,55.41,49.25,55.41Zm.66-35.65H43.83V49.08h6.08c6.14,0,9.93-4.88,9.93-14.69S56.06,19.76,49.92,19.76Z"/><path class="cls-1" d="M98.87,55.41,96.1,45.89H81.53l-2.77,9.51H70.81l12.95-42H93.87l12.95,42ZM91.16,29.21c-1-3.49-2.35-9.51-2.35-9.51s-1.32,6-2.35,9.51l-3,10.06h10.6Z"/><path class="cls-2" d="M146.82,52.79v2.62H123.55V12.81h3.1v40Z"/><path class="cls-2" d="M186.41,55.41H184a1,1,0,0,1-.69-.23,1.51,1.51,0,0,1-.42-.59l-5-12.37H157l-5,12.37a1.29,1.29,0,0,1-.42.57,1.12,1.12,0,0,1-.72.24h-2.35l17.43-42.6h3ZM177,39.93l-8.67-21.53a21.55,21.55,0,0,1-.87-2.53q-.18.72-.39,1.37a12.3,12.3,0,0,1-.45,1.19l-8.67,21.5Z"/><path class="cls-2" d="M205.74,12.81a24.45,24.45,0,0,1,6.32.72,12,12,0,0,1,4.43,2.12,8.56,8.56,0,0,1,2.59,3.42,11.78,11.78,0,0,1,.84,4.58,9.2,9.2,0,0,1-.59,3.25,10,10,0,0,1-1.69,2.89,10.68,10.68,0,0,1-2.71,2.3,13.1,13.1,0,0,1-3.69,1.49A13.58,13.58,0,0,1,219,36.91a9.09,9.09,0,0,1,2.69,6.85,11.88,11.88,0,0,1-1,4.88,9.87,9.87,0,0,1-2.8,3.67,12.78,12.78,0,0,1-4.52,2.3,21.31,21.31,0,0,1-6.08.8H193.49V12.81Zm-9.15,2.44V32.74h9.21a15,15,0,0,0,5-.75,10,10,0,0,0,3.43-2,7.72,7.72,0,0,0,2-2.8,8.54,8.54,0,0,0,.63-3.22,7.9,7.9,0,0,0-2.72-6.52q-2.72-2.21-8.42-2.21Zm10.69,37.69q5.6,0,8.48-2.42a8.43,8.43,0,0,0,2.88-6.82,8.33,8.33,0,0,0-.77-3.63,7.58,7.58,0,0,0-2.21-2.74,10.31,10.31,0,0,0-3.55-1.73,17.45,17.45,0,0,0-4.79-.6H196.59V52.94Z"/><path class="cls-2" d="M252.23,18a.85.85,0,0,1-.78.51,1.73,1.73,0,0,1-1-.56,12.95,12.95,0,0,0-4.31-2.48,13.21,13.21,0,0,0-8,.09,8.51,8.51,0,0,0-3,1.81A7.69,7.69,0,0,0,233.39,20a8.26,8.26,0,0,0-.62,3.16,6.46,6.46,0,0,0,.92,3.58,8.27,8.27,0,0,0,2.42,2.41,15.69,15.69,0,0,0,3.42,1.67q1.91.68,3.93,1.34t3.93,1.46a14.19,14.19,0,0,1,3.42,2,9.21,9.21,0,0,1,2.42,3,9.42,9.42,0,0,1,.92,4.38,13.82,13.82,0,0,1-.92,5,11.78,11.78,0,0,1-2.67,4.11,12.5,12.5,0,0,1-4.28,2.75,15.51,15.51,0,0,1-5.78,1,16.34,16.34,0,0,1-7.26-1.49,17.07,17.07,0,0,1-5.33-4.08l.84-1.32a1.06,1.06,0,0,1,.84-.45,1.21,1.21,0,0,1,.69.36l1,.89q.6.53,1.45,1.14a11.91,11.91,0,0,0,2,1.14,13.88,13.88,0,0,0,2.56.89,13.58,13.58,0,0,0,3.28.36,12.46,12.46,0,0,0,4.52-.77,9.88,9.88,0,0,0,3.36-2.09,8.86,8.86,0,0,0,2.09-3.15,10.46,10.46,0,0,0,.72-3.9,6.88,6.88,0,0,0-.92-3.72,7.91,7.91,0,0,0-2.42-2.44,15.65,15.65,0,0,0-3.42-1.64q-1.91-.66-3.93-1.29t-3.93-1.42a13.5,13.5,0,0,1-3.42-2,9.15,9.15,0,0,1-2.42-3,10.08,10.08,0,0,1-.92-4.56,10.79,10.79,0,0,1,.81-4.12,10.25,10.25,0,0,1,2.38-3.51,11.7,11.7,0,0,1,3.87-2.44,14.09,14.09,0,0,1,5.25-.92,15.9,15.9,0,0,1,5.95,1.05,14.26,14.26,0,0,1,4.8,3.22Z"/></svg>